<svg width="24" height="24" viewBox="0 0 24 24" fill="none" xmlns="http://www.w3.org/2000/svg">
<path d="M22.8832 21.7617H1.11681C0.820616 21.7617 0.53655 21.8796 0.327107 22.0895C0.117664 22.2994 0 22.584 0 22.8808C0 23.1776 0.117664 23.4623 0.327107 23.6721C0.53655 23.882 0.820616 23.9999 1.11681 23.9999H22.8832C23.1794 23.9999 23.4635 23.882 23.6729 23.6721C23.8823 23.4623 24 23.1776 24 22.8808C24 22.584 23.8823 22.2994 23.6729 22.0895C23.4635 21.8796 23.1794 21.7617 22.8832 21.7617Z" fill="#0D2543"/>
<path d="M2.51003 18.8571C2.222 18.8693 1.94982 18.9926 1.75033 19.2011C1.55083 19.4096 1.43945 19.6872 1.43945 19.9761C1.43945 20.2649 1.55083 20.5425 1.75033 20.751C1.94982 20.9596 2.222 21.0828 2.51003 21.095H21.4917C21.7797 21.0828 22.0519 20.9596 22.2514 20.751C22.4509 20.5425 22.5623 20.2649 22.5623 19.9761C22.5623 19.6872 22.4509 19.4096 22.2514 19.2011C22.0519 18.9926 21.7797 18.8693 21.4917 18.8571H21.2172V8.78687H21.4877C21.6357 8.78687 21.7776 8.72797 21.8822 8.62315C21.9868 8.51832 22.0456 8.37615 22.0456 8.22791C22.0456 8.07966 21.9868 7.93749 21.8822 7.83266C21.7776 7.72784 21.6357 7.66895 21.4877 7.66895H2.51003C2.36206 7.66895 2.22016 7.72784 2.11553 7.83266C2.01091 7.93749 1.95213 8.07966 1.95213 8.22791C1.95213 8.37615 2.01091 8.51832 2.11553 8.62315C2.22016 8.72797 2.36206 8.78687 2.51003 8.78687H2.78149V18.8571H2.51003ZM19.0515 8.78687V18.8571H15.7979V8.78687H19.0515ZM13.6282 8.78687V18.8571H10.3746V8.78687H13.6282ZM4.95123 8.78687H8.20482V18.8571H4.94923L4.95123 8.78687Z" fill="#0D2543"/>
<path d="M1.11789 7.26962H22.8935C23.0385 7.26845 23.1818 7.23851 23.3153 7.18151C23.4487 7.12451 23.5695 7.04159 23.6707 6.93754C23.772 6.83349 23.8516 6.71037 23.9051 6.5753C23.9586 6.44022 23.9849 6.29587 23.9823 6.15057C23.9847 5.91898 23.9152 5.69237 23.7835 5.50209C23.6517 5.31182 23.4641 5.16729 23.2468 5.08852L12.4478 0.0982791C12.3078 0.0335312 12.1554 0 12.0012 0C11.847 0 11.6946 0.0335312 11.5546 0.0982791L0.670762 5.13152C0.441188 5.24029 0.255148 5.42376 0.142959 5.65204C0.0307714 5.88031 -0.000949807 6.13993 0.0529654 6.38858C0.102995 6.6354 0.236034 6.85754 0.429857 7.01789C0.62368 7.17825 0.866549 7.2671 1.11789 7.26962Z" fill="#0D2543"/>
</svg>
