<svg width="24" height="24" viewBox="0 0 24 24" fill="none" xmlns="http://www.w3.org/2000/svg">
<path d="M16.8487 1.14525e-06H6.74896C6.51929 -0.000261825 6.29183 0.0447647 6.07958 0.132505C5.86734 0.220244 5.67447 0.348975 5.51203 0.511331C5.34958 0.673687 5.22074 0.866482 5.13288 1.07868C5.04502 1.29089 4.99987 1.51833 5 1.748V22.253C4.99987 22.4826 5.04503 22.71 5.1329 22.9222C5.22077 23.1343 5.34963 23.327 5.51209 23.4893C5.67454 23.6516 5.86742 23.7802 6.07966 23.8679C6.2919 23.9555 6.51934 24.0004 6.74896 24H16.8487C17.3121 24 17.7564 23.8159 18.084 23.4883C18.4116 23.1607 18.5957 22.7163 18.5957 22.253V1.748C18.5957 1.28458 18.4117 0.840117 18.0841 0.512332C17.7565 0.184547 17.3122 0.000266263 16.8487 1.14525e-06ZM9.30391 1.062H14.2888C14.4148 1.062 14.5168 1.25 14.5168 1.483C14.5168 1.716 14.4168 1.905 14.2888 1.905H9.30391C9.17691 1.905 9.07691 1.716 9.07691 1.483C9.07691 1.25 9.17691 1.062 9.30391 1.062ZM11.7969 22.275C11.5763 22.2754 11.3606 22.2104 11.177 22.0881C10.9934 21.9659 10.8501 21.792 10.7654 21.5883C10.6807 21.3847 10.6583 21.1605 10.701 20.9441C10.7437 20.7277 10.8496 20.5288 11.0054 20.3726C11.1611 20.2165 11.3597 20.11 11.576 20.0667C11.7923 20.0234 12.0165 20.0452 12.2204 20.1294C12.4242 20.2136 12.5986 20.3563 12.7213 20.5396C12.844 20.7229 12.9096 20.9384 12.9098 21.159C12.9093 21.4544 12.7918 21.7375 12.583 21.9465C12.3743 22.1554 12.0912 22.2732 11.7959 22.274L11.7969 22.275ZM17.2827 18.454H6.30897V2.95H17.2817V18.45L17.2827 18.454Z" fill="#0D2543"/>
</svg>
