<svg width="24" height="24" viewBox="0 0 24 24" fill="none" xmlns="http://www.w3.org/2000/svg">
<path d="M17.3213 0H6.62104C6.19152 0.00131874 5.77997 0.172526 5.47625 0.476237C5.17253 0.779948 5.00132 1.19149 5 1.621V22.378C5.00106 22.8077 5.17215 23.2195 5.4759 23.5234C5.77965 23.8273 6.19135 23.9987 6.62104 24H17.3213C17.7509 23.9989 18.1626 23.8278 18.4664 23.5241C18.7702 23.2203 18.9413 22.8086 18.9424 22.379V1.621C18.9411 1.19149 18.7699 0.779948 18.4661 0.476237C18.1624 0.172526 17.7509 0.00131874 17.3213 0V0ZM10.2591 1.168H13.6822C13.728 1.17668 13.7693 1.20105 13.799 1.23693C13.8287 1.2728 13.845 1.31792 13.845 1.3645C13.845 1.41108 13.8287 1.4562 13.799 1.49207C13.7693 1.52795 13.728 1.55232 13.6822 1.561H10.2591C10.2134 1.55232 10.1721 1.52795 10.1424 1.49207C10.1127 1.4562 10.0964 1.41108 10.0964 1.3645C10.0964 1.31792 10.1127 1.2728 10.1424 1.23693C10.1721 1.20105 10.2134 1.17668 10.2591 1.168ZM11.9662 23.189C11.8058 23.189 11.649 23.1414 11.5156 23.0523C11.3822 22.9632 11.2783 22.8365 11.2169 22.6884C11.1555 22.5402 11.1395 22.3771 11.1708 22.2198C11.202 22.0625 11.2793 21.918 11.3927 21.8045C11.5061 21.6911 11.6506 21.6139 11.808 21.5826C11.9653 21.5513 12.1284 21.5674 12.2766 21.6287C12.4248 21.6901 12.5514 21.7941 12.6405 21.9274C12.7296 22.0608 12.7772 22.2176 12.7772 22.378C12.7773 22.4845 12.7565 22.5901 12.7157 22.6885C12.675 22.787 12.6153 22.8764 12.54 22.9518C12.4646 23.0271 12.3752 23.0868 12.2767 23.1275C12.1783 23.1682 12.0727 23.1891 11.9662 23.189ZM17.8144 21H6.12803V2.571H17.8144V21Z" fill="#0D2543"/>
</svg>
