<svg width="24" height="24" viewBox="0 0 24 24" fill="none" xmlns="http://www.w3.org/2000/svg">
<path d="M18.8429 8.7747C19.1195 8.77441 19.3946 8.81586 19.6588 8.89765L22.0098 6.54773L20.9098 5.44824L17.5859 8.77071L18.8429 8.7747Z" fill="#0D2543"/>
<path d="M23.5977 8.19L22.9886 7.58105L20.8594 9.70989C21.3375 10.2191 21.6036 10.8913 21.6035 11.5897V12.1317L23.5977 10.1378C23.8559 9.87947 24.001 9.52917 24.001 9.16392C24.001 8.79868 23.8559 8.44837 23.5977 8.19Z" fill="#0D2543"/>
<path d="M19.7363 4.35057L15.7944 0.405156C15.6664 0.276734 15.5143 0.174839 15.3468 0.105314C15.1793 0.0357886 14.9998 0 14.8184 0C14.6371 0 14.4575 0.0357886 14.29 0.105314C14.1226 0.174839 13.9704 0.276734 13.8424 0.405156L5.60156 8.64493H15.4424L19.7363 4.35057Z" fill="#0D2543"/>
<path d="M3.69922 14.7061H5.79883V16.2551H3.69922V14.7061Z" fill="#0D2543"/>
<path d="M18.3671 10.5049H1.37801C1.01254 10.5049 0.662036 10.65 0.403609 10.9084C0.145183 11.1668 0 11.5172 0 11.8826L0 22.6227C0 22.9881 0.145183 23.3385 0.403609 23.5969C0.662036 23.8553 1.01254 24.0004 1.37801 24.0004H18.3671C18.7326 24.0004 19.0831 23.8553 19.3415 23.5969C19.5999 23.3385 19.7451 22.9881 19.7451 22.6227V11.8826C19.7451 11.5172 19.5999 11.1668 19.3415 10.9084C19.0831 10.65 18.7326 10.5049 18.3671 10.5049ZM2.23901 13.4953H7.09504V17.8005H2.23901V13.4953ZM4.92003 21.011H2.20001V19.6362H4.92003V21.011ZM9.13005 21.011H6.40604V19.6362H9.12905L9.13005 21.011ZM13.3401 21.011H10.6151V19.6362H13.3391L13.3401 21.011ZM17.5501 21.011H14.8251V19.6362H17.5491L17.5501 21.011Z" fill="#0D2543"/>
</svg>
