<svg width="360" height="799" viewBox="0 0 360 799" fill="none" xmlns="http://www.w3.org/2000/svg">
<mask id="mask0_1_1259" style="mask-type:alpha" maskUnits="userSpaceOnUse" x="0" y="0" width="360" height="800">
<path opacity="0.08" d="M360 0H0V800H360V0Z" fill="#707070"/>
</mask>
<g mask="url(#mask0_1_1259)">
<path d="M7.508 247.612C7.45134 233.252 -15.1155 217.103 -24.7555 208.776C-43.8158 192.309 -63.642 177.102 -83.2797 161.652C-102.917 146.203 -122.613 130.795 -141.341 113.833C-153.501 102.823 -167.79 90.4222 -176.037 74.7004C-193.605 41.1959 -138.213 46.1714 -123.864 45.4385C-87.3623 43.5663 -45.495 44.4215 -11.2804 26.9733C9.14455 16.5574 17.289 -0.910697 12.9022 -26.3709C11.4877 -34.6504 7.30267 -44.1785 10.8487 -52.2445C14.6345 -60.8593 23.3445 -65.8307 30.5734 -69.1642C56.9405 -81.3105 87.2561 -82.7155 115.154 -84.2411C145.236 -85.918 175.601 -85.4262 205.471 -85.5554C218.137 -85.6098 231.365 -90.9995 243.426 -95.3808C259.238 -101.123 274.861 -107.573 290.543 -113.808C325.04 -127.496 360.59 -141.908 397.086 -145.385C419.943 -147.563 444.924 -144.619 462.68 -125.676C471.594 -116.168 476.261 -102.026 481.415 -89.4667C487.654 -74.2938 493.646 -58.9735 500.288 -44.0389C521.685 4.06114 552.236 51.0639 601.818 53.4256C609.32 53.7814 616.686 52.6216 624.152 52.4036C628.907 52.2677 633.138 53.6305 634.905 59.5224C639.347 74.302 625.382 97.6339 619.656 109.361C607.117 135.029 592.978 159.548 579.734 184.699C570.971 201.332 555.804 224.067 555.643 244.278C555.502 262.286 575.721 275.303 586.73 284.173C597.045 292.478 615.736 304.1 616.865 320.994C617.413 329.186 612.853 335.974 608.091 341.244C599.745 350.457 590.13 356.956 582.62 367.469C570.308 384.715 560.021 408.445 561.693 431.684C562.853 447.787 570.608 458.334 580.474 468.414C584.62 472.652 587.986 475.65 588.205 482.531C588.559 493.458 584.946 505.021 581.971 515.152C571.323 551.407 556.201 586.466 539.377 619.2C530.971 635.559 521.89 651.867 510.744 665.821C503.446 674.985 493.601 685.89 482.468 685.878C469.576 685.878 455.935 680.366 443.404 676.245C419.996 668.543 396.874 659.64 373.844 650.506C320.585 629.373 267.826 606.528 215.568 581.972C178.759 564.646 141.168 547.293 106.561 524.259C99.7122 519.653 93.3391 514.377 87.5361 508.508C81.2259 502.253 73.3956 499.457 65.457 497.372C16.1799 484.427 -37.8061 494.365 -87.2875 500.597C-99.8472 502.176 -112.406 503.763 -125.002 504.868C-135.83 505.82 -148.792 508.546 -159.315 504.449C-180.051 496.387 -161.924 466.673 -154.261 454.567C-127.279 411.937 -92.4661 375.87 -60.1998 339.049C-44.8582 321.513 -29.4002 304.024 -14.8925 285.496C-7.33687 275.864 7.5583 260.202 7.508 247.612Z" stroke="#0D2543" stroke-miterlimit="10"/>
<path d="M16.8076 245.191C8.53719 229.995 -5.97316 218.763 -18.018 208.193C-35.351 192.976 -53.2288 178.605 -70.8379 163.819C-87.4883 149.836 -104.174 135.696 -119.593 119.818C-128.995 110.135 -140.793 98.5564 -145.246 84.2355C-154.906 53.1947 -102.936 57.9033 -90.1057 57.0921C-58.2093 55.0825 -22.0494 54.6224 7.46126 38.2783C25.8875 28.0726 33.4572 11.1475 29.5273 -12.3493C28.1676 -20.4788 25.7202 -27.4199 28.8198 -35.509C32.4034 -44.8689 40.6453 -50.7051 48.201 -54.8244C71.8691 -67.7304 99.8461 -70.4723 125.503 -72.7538C152.008 -75.1106 179.623 -76.7708 205.277 -75.0481C215.535 -74.3614 227.343 -78.2587 237.497 -81.2482C253.118 -85.8529 268.58 -91.1638 284.125 -96.1053C315.715 -106.152 348.123 -115.83 380.985 -116.932C404.71 -117.727 429.447 -113.416 449.186 -96.7502C469.189 -79.8509 478.065 -53.6533 489.16 -28.7496C508.319 14.3065 534.194 66.6537 578.517 75.7503C585.238 77.1317 591.697 76.3825 598.411 76.7215C601.864 76.8933 605.794 77.4376 607.544 81.4686C612.09 91.9339 599.633 111.069 595.443 119.086C583.862 141.239 570.841 162.307 558.705 184.033C549.065 201.284 536.848 220.453 533.119 240.902C528.594 265.716 558.156 283.375 568.553 300.848C586.575 331.147 552.429 348.411 535.595 362.858C516.263 379.445 500.306 409.701 517.635 435.362C524.265 445.176 532.422 451.023 535.382 463.828C540.012 483.855 536.511 506.741 532.754 526.537C527.096 556.297 518.136 585.735 505.962 612.631C497.239 631.891 482.767 662.086 461.575 659.822C447.309 658.311 432.806 652.789 418.915 647.908C398.115 640.603 377.578 632.277 357.149 623.628C309.988 603.721 263.351 581.769 217.632 557.623C186.435 541.142 99.4164 473.79 92.8683 471.387C73.3457 464.229 51.1487 465.489 31.0211 466.599C4.24929 468.074 -22.393 471.89 -49.0116 475.428C-61.6823 477.102 -74.4169 479.149 -87.1525 479.974C-96.2169 480.56 -108.125 481.062 -116.068 474.821C-131.568 462.643 -114.301 434.78 -107.157 422.992C-85.2789 386.852 -57.6024 355.556 -31.6505 323.557C-18.9149 307.845 -5.9872 292.161 5.57269 275.19C10.2323 268.337 21.9195 254.576 16.8076 245.191Z" stroke="#0D2543" stroke-miterlimit="10"/>
<path d="M21.4637 242.495C-1.12261 212.088 -30.4479 189.162 -57.3516 163.765C-70.8576 151.015 -79.506 133.127 -91.1534 117.94C-97.212 110.043 -104.775 100.056 -105.944 89.047C-109.064 59.597 -62.2219 63.5795 -48.2038 62.4614C-21.0974 60.2923 9.52449 58.648 34.1159 43.6187C49.1406 34.4314 56.5395 19.3527 53.7313 -0.466696C52.4863 -9.25921 50.5479 -16.7305 53.7313 -25.3644C56.9569 -34.1116 63.6768 -40.2836 70.482 -44.911C90.0372 -58.2185 114.338 -62.4729 136.356 -65.6427C162.134 -69.3319 188.184 -70.775 214.212 -69.9556C236.989 -69.2477 259.657 -77.2072 281.896 -82.4551C311.356 -89.402 341.354 -95.4693 371.502 -94.5525C395.312 -93.8237 419.309 -88.0999 439.663 -72.8884C460.346 -57.395 472.782 -34.2055 483.993 -9.18215C500.944 28.6488 522.064 79.3385 559.246 93.7057C564.654 95.7991 569.694 96.0293 575.272 96.3942C577.981 96.57 581.481 96.6244 582.823 99.9706C586.057 108.028 574.106 123.647 570.771 129.088C560.125 146.468 548.586 163.062 537.673 180.211C527.488 196.22 516.392 212.902 510.063 231.662C499.994 261.538 532.186 279.008 531.282 307.476C530.72 325.151 516.428 337.826 505.109 346.594C491.173 357.377 471.107 364.466 464.135 384.142C458.94 398.798 467.092 407.329 473.37 418.451C484.008 437.294 484.733 462.837 483.626 484.649C482.134 514.124 476.301 544.034 466.374 571.126C461.879 583.408 456.369 596.183 448.257 605.724C440.654 614.662 433.461 616.953 423.303 615.123C392.208 609.512 360.811 593.872 330.99 579.903C293.524 562.349 256.575 542.97 220.729 521.165C196.286 506.295 171.291 490.564 149.837 470.021C144.245 464.665 138.521 458.845 134.43 451.78C131.339 446.471 130.03 442.087 124.817 439.055C109.375 430.073 87.8957 432.423 71.3508 433.356C44.8931 434.842 18.5672 438.8 -7.72557 442.363C-23.0685 444.457 -51.9714 451.043 -64.2233 435.244C-74.7984 421.602 -62.0375 398.341 -55.5192 386.323C-39.0305 355.931 -17.8202 329.257 1.8587 301.793C10.8778 289.206 13.4612 281.621 20.9131 267.627C21.8018 265.961 22.9404 264.042 24.0109 261.917C25.1127 259.73 26.1088 257.309 26.388 254.999C26.9781 250.034 24.237 246.244 21.4637 242.495Z" stroke="#0D2543" stroke-miterlimit="10"/>
<path d="M30.1918 244.476C9.32138 217.589 -15.8225 195.501 -38.228 170.34C-48.2741 159.058 -58.4191 147.225 -66.074 133.462C-70.1915 126.062 -74.5615 116.746 -73.4279 107.547C-70.1702 81.1464 -31.6445 83.5312 -16.0799 81.9857C7.04667 79.716 33.6159 77.4277 54.0666 63.1902C67.4625 53.866 72.486 40.0958 69.9847 22.3363C67.2998 3.28599 73.3027 -10.5432 86.9642 -21.1708C104.092 -34.4842 125.715 -39.9111 145.599 -43.7662C169.477 -48.3806 193.78 -50.4317 218.093 -49.8847C241.698 -49.348 264.567 -54.0335 288.016 -57.0796C319.107 -61.1132 351.195 -63.1075 381.933 -54.8334C408.697 -47.6299 432.871 -31.7558 450.993 -7.20748C469.922 18.4141 479.292 50.694 494.662 79.0407C504.249 96.7209 517.616 120.109 535.527 126.981C541.497 129.269 552.389 126.176 547.616 137.452C544.888 143.9 539.784 149.558 535.751 154.83C529.235 163.35 522.504 171.634 515.878 180.036C501.757 197.947 486.635 216.24 476.051 237.447C462.715 264.149 482.538 284.7 480.122 311.775C478.824 326.346 470.273 337.975 461.223 347.11C455.369 353.028 448.963 358.153 442.422 362.934C435.594 367.93 427.511 371.737 421.555 378.194C413.067 387.384 416.75 398.263 418.343 410.143C421.146 431.07 421.761 452.232 420.176 473.287C418.238 499.097 413.693 525.644 404.117 549.099C400.392 558.23 395.673 567.912 388.666 574.033C381.658 580.153 374.41 579.736 366.381 577.892C342.564 572.444 318.796 559.768 296.203 547.753C267.925 532.713 240.203 515.904 213.729 496.782C195.455 483.582 177.121 469.321 161.832 451.426C157.386 446.217 153.156 440.639 149.735 434.412C147.386 430.141 146.126 424.631 142.724 421.421C132.077 411.404 110.7 414.395 98.2132 414.977C73.2923 416.138 48.7644 421.657 23.8752 422.999C10.2917 423.733 -10.9816 425.576 -20.9575 411.877C-30.3392 398.999 -21.8417 378.717 -16.2349 366.309C-5.21618 341.911 9.58785 320.175 22.8564 297.495C28.3109 288.162 34.2894 278.399 37.8232 267.742C40.9631 258.243 35.5398 251.371 30.1918 244.476Z" stroke="#0D2543" stroke-miterlimit="10"/>
<path d="M35.3243 244.916C18.7119 221.258 -1.31415 200.254 -18.0467 176.208C-27.8408 162.127 -44.7074 138.454 -37.1332 118.603C-28.8233 96.789 0.141596 96.1948 16.8845 94.4368C36.8123 92.3442 60.2126 89.4862 77.2678 75.8655C82.6612 71.5599 87.2564 65.8602 89.2044 58.353C91.2892 50.3192 89.0099 43.2888 88.713 35.2455C88.0912 18.3734 96.5946 4.82794 107.849 -4.4749C123.754 -17.627 143.643 -23.8452 162.429 -28.1784C183.613 -33.057 205.289 -35.4722 227.027 -35.3761C247.746 -35.2922 268.247 -35.8361 288.987 -36.4638C316.111 -37.3009 343.617 -35.9494 369.927 -27.417C395.846 -19.0061 419.41 -3.24258 437.921 19.9447C455.979 42.5723 468.162 70.2265 478.833 98.3975C484.888 114.387 495.117 138.281 509.558 146.357C515.983 149.951 522.286 149.704 515.457 159.051C506.857 170.822 495.268 180.267 485.307 190.335C470.94 204.863 456.21 219.677 444.151 236.951C436.45 247.981 433.017 258.685 433.546 272.967C433.956 283.849 435.815 294.614 434.875 305.536C432.675 331.171 415.626 348.75 400.555 365.121C390.86 375.649 382.006 383.68 377.015 398.656C371.113 416.356 368.631 435.614 364.69 453.994C360.357 474.176 355.354 495.171 345.894 512.947C337.476 528.773 327.234 535.87 311.911 531.604C288.007 524.959 264.445 508.589 243.226 493.443C221.627 478.036 200.397 460.711 182.499 439.533C172.836 428.097 166.241 414.668 157.659 402.382C146.866 386.958 122.443 392.799 107.931 394.105C83.8404 396.273 8.03585 412.492 15.0304 359.959C17.9501 338.031 29.4474 317.795 37.856 298.446C41.3408 290.416 46.3848 280.779 47.1729 271.576C48.0313 261.558 40.3189 252.04 35.3243 244.916Z" stroke="#0D2543" stroke-miterlimit="10"/>
<path d="M44.0964 246.927C31.4016 225.487 16.2091 205.23 5.31639 182.074C-1.75025 167.077 -8.68821 147.04 0.426544 131.171C10.7147 113.264 33.4017 109.09 50.0712 106.808C67.2483 104.46 87.7489 102.483 101.787 88.9059C106.252 84.5813 109.934 78.7492 110.62 71.7655C111.281 65.0669 109.415 58.3678 110.033 51.5477C111.418 36.2329 119.258 23.6138 129.365 14.4615C159.266 -12.614 203.77 -18.6346 239.848 -19.3425C257.906 -19.6942 276.49 -17.8469 294.665 -16.5249C318.249 -14.8085 341.869 -11.1238 364.36 -2.24386C412.182 16.6301 444.235 58.4879 466.621 110.577C473.668 126.972 479.058 144.711 490.098 157.887C495.79 164.69 494.546 169.576 488.727 175.781C479.63 185.48 468.532 192.888 458.433 200.98C444.071 212.49 429.401 224.171 416.7 237.958C407.945 247.462 401.729 256.619 399.843 270.87C398.497 281.031 398.812 291.385 398.002 301.609C396.461 321.033 391.187 340.307 381.848 356.418C374.429 369.188 365.595 380.793 356.468 391.86C344.583 406.121 334.22 421.585 325.55 438C313.601 460.634 296.811 502.385 268.666 491.336C237.624 479.144 208.528 448.165 188.613 418.151C181.924 408.073 176.434 395.714 167.414 388.284C153.908 377.177 140.208 377.565 124.146 377.612C100.099 377.675 47.7729 383.858 47.2077 341.187C46.9852 324.282 53.1608 308.296 56.1185 292.035C59.4511 273.821 52.7665 261.537 44.0964 246.927Z" stroke="#0D2543" stroke-miterlimit="10"/>
<path d="M53.5509 248.837C40.9944 220.893 12.8348 174.976 34.2527 143.902C45.5651 127.478 65.5735 121.309 82.3586 117.632C95.8646 114.658 112.156 113.54 122.362 100.93C129.863 91.6592 126.531 78.1659 129.407 66.5598C132.974 52.1695 141.161 40.3984 151.222 31.5497C179.337 6.81916 218.429 -0.770469 252.249 -2.3853C287.374 -4.0586 326.077 3.76719 359.13 18.8255C400.344 37.6075 431.22 73.1705 452.812 118.207C456.794 126.52 460.416 135.051 464.241 143.465C466.811 149.109 470.622 154.569 472.648 160.506C476.021 170.405 472.047 178.497 465.677 184.948C456.514 194.236 445.258 200.846 434.813 207.817C420.527 217.356 405.924 226.724 392.635 237.915C383.707 245.447 374.359 253.559 371.163 266.625C368.982 275.536 368.529 284.975 368.607 294.204C368.777 313.994 367.9 329.997 360.102 348.121C347.269 377.877 327.536 404.633 306.69 426.895C290.328 444.366 264.441 471.507 240.604 459.825C219.216 449.366 206.707 424.33 192.614 404.088C185.762 394.248 178.065 385.261 169.024 378.262C157.623 369.438 146.89 365.735 133.382 364.291C110.648 361.86 76.367 361.229 69.3421 328.93C66.7469 317.01 68.2289 304.663 66.8675 292.589C65.0858 276.621 59.886 262.932 53.5509 248.837Z" stroke="#0D2543" stroke-miterlimit="10"/>
<path d="M66.6066 249.872C57.665 219.296 45.9184 180.762 67.5131 153.587C77.9739 140.422 92.6882 133.063 106.927 127.563C117.124 123.62 133.32 122.462 139.574 110.345C144.166 101.427 144.802 89.1256 148.955 79.5708C154.476 66.9952 162.87 55.8901 173.462 47.1477C199.894 25.0794 234.322 16.5507 265.718 14.1078C333.94 8.81192 403.353 51.0105 439.858 120.439C450.742 141.134 464.792 163.162 447.2 184.305C427.996 207.37 399.066 218.177 376.145 234.567C367.387 240.824 356.227 248.345 351.341 259.675C348.402 266.486 348.2 275.031 348.066 282.528C347.713 301.623 346.373 318.796 339.893 336.614C329.881 364.149 313.916 389.55 295.825 410.36C280.049 428.506 257.548 449.829 234.633 436.748C217.065 426.696 205.923 405.36 192.272 389.632C177.078 372.116 158.293 360.312 137.661 354.547C117.591 348.953 95.578 345.177 85.0007 321.403C81.3726 313.249 77.5814 302.691 76.2213 293.663C74.0429 278.86 70.8308 264.227 66.6085 249.872L66.6066 249.872Z" stroke="#0D2543" stroke-miterlimit="10"/>
<path d="M81.1658 250.086C77.0269 219.211 76.5696 187.017 95.7885 162.683C104.758 151.331 116.097 143.265 127.563 135.958C135.997 130.581 144.71 126.046 151.011 117.231C156.848 109.069 161.285 99.5925 166.919 91.2156C174.113 80.3768 183.009 70.7697 193.263 62.7646C218.366 43.3802 248.903 34.314 278.117 31.1691C292.258 29.6408 307.6 28.845 321.647 33.0119C335.214 37.032 348.629 43.3907 361.101 50.8009C387.619 66.5399 410.6 89.5926 427.262 118.737C438.683 138.73 444.861 158.168 430.068 178.45C413.389 201.31 387.241 213.923 365.688 228.757C350.906 238.933 334.338 248.908 331.577 270.532C329.377 287.74 327.593 304.071 321.903 320.336C313.437 344.329 300.988 366.061 285.296 384.245C270.946 400.812 252.79 414.869 232.262 406.021C215.998 398.998 203.38 383.265 189.17 372.018C173.335 359.455 155.936 352.529 137.614 346.959C121.149 341.934 105.646 334.212 95.0035 317.817C92.6847 314.397 90.6304 310.804 88.8587 307.071C86.7159 302.292 86.8827 297.549 86.4617 292.188C85.3662 278.045 83.0398 264.06 81.1658 250.086Z" stroke="#0D2543" stroke-miterlimit="10"/>
<path d="M97.2187 247.566C97.5722 218.239 103.527 190.523 119.834 167.668C126.807 157.891 135.133 149.838 142.805 140.878C148.982 133.658 154.82 126.946 161.923 120.993C178.773 106.898 192.467 88.6632 210.373 76.1131C234.276 59.3357 261.658 50.0619 288.826 46.354C302.092 44.5412 315.796 43.9066 329.219 45.9552C340.745 47.7123 351.786 53.8825 362.028 60.1927C382.103 72.5593 401.595 90.1335 414.626 112.368C443.36 161.385 386.708 197.025 357.632 217.897C344.26 227.498 323.827 238.617 318.349 257.635C314.433 271.221 312.049 285.037 307.005 298.203C293.456 333.56 265.96 375.147 229.314 369.612C213.637 367.246 199.346 357.637 184.708 351.186C169.635 344.542 154.08 340.839 138.416 336.773C123.777 332.978 112.105 327.575 102.649 313.093C98.1287 306.177 98.528 297.896 98.1251 289.412C97.4657 275.473 97.0592 261.456 97.2187 247.566Z" stroke="#0D2543" stroke-miterlimit="10"/>
<path d="M111.836 243.807C117.722 199.541 139.587 151.214 171.737 125.507C209.551 95.2666 250.52 69.8001 295.701 62.4819C316.649 59.0873 339.596 57.4176 359.361 68.5174C374.404 76.9596 391.878 89.5805 400.157 107.326C420.411 150.735 375.36 185.291 349.693 205.372C335.874 216.184 318.284 226.719 307.868 242.506C301.826 251.659 298.741 263.769 293.864 273.824C279.079 304.29 254.742 328.863 224.426 333.258C210.409 335.288 196.292 332.777 182.378 330.78C168.139 328.738 153.72 327.628 139.57 324.78C128.274 322.503 114.96 318.649 110.8 304.329C105.553 286.283 109.434 261.884 111.836 243.807Z" stroke="#0D2543" stroke-miterlimit="10"/>
<path d="M126.169 236.696C134.755 195.078 152.936 154.481 183.502 129.638C199.71 116.463 218.524 107.369 236.589 98.3838C257.065 88.2003 278.46 80.2957 300.307 76.3744C327.511 71.49 371.573 67.0874 385.787 103.804C399.895 140.248 364.245 172.503 343.164 190.885C329.647 202.661 315.182 213.468 302.268 226.341C295.265 233.32 289.871 241.384 283.945 249.569C267.567 272.247 244.218 290.202 220.42 299.786C197.356 309.078 168.822 313.192 144.474 310.121C133.969 308.799 126.46 304.349 123.283 291.689C118.881 274.091 122.621 253.888 126.169 236.696Z" stroke="#0D2543" stroke-miterlimit="10"/>
<path d="M140.412 225.487C148.941 188.844 167.336 155.378 194.173 133.384C224.253 108.728 262.986 95.0301 298.589 88.0641C317.512 84.364 358.519 74.3315 368.164 103.044C377.809 131.757 349.924 160.052 333.875 175.629C314.397 194.507 293.397 212.731 272.421 229.667C254.201 244.393 234.753 259.448 215.012 270.82C204.015 277.209 192.406 282.482 180.358 286.559C171.529 289.512 160.302 293.917 151.044 291.719C127.697 286.167 136.333 243.007 140.412 225.487Z" stroke="#0D2543" stroke-miterlimit="10"/>
<path d="M157.993 214.514C176.706 145.216 235.999 111.14 293.088 99.2597C306.354 96.5022 343.541 86.5604 350.957 107.729C358.144 128.251 335.289 152.591 324.593 164.123C291.44 199.856 250.482 226.351 211.669 252.6C199.554 260.793 177.704 278.572 162.676 270.371C146.359 261.447 154.116 228.881 157.993 214.514Z" stroke="#0D2543" stroke-miterlimit="10"/>
<path d="M177.162 201.176C193.438 150.145 240.774 120.877 284.295 111.223C294.955 108.867 322.027 101.514 330.101 115.756C337.573 128.929 319.742 148.017 313.074 155.602C298.223 172.492 280.623 186.407 263.236 199.781C247.16 212.156 230.911 224.838 213.994 235.302C205.086 240.811 188.374 252.565 178.249 244.059C167.346 234.911 173.549 212.508 177.162 201.176Z" stroke="#0D2543" stroke-miterlimit="10"/>
<path d="M198.286 186.267C210.691 152.942 243.913 131.301 273.219 124.109C281.105 122.177 298.146 117.17 304.8 126.07C310.924 134.266 301.055 146.283 296.674 151.831C277.259 176.428 248.828 198.4 222.779 211.895C216.23 215.288 204.457 221.946 197.719 215.098C190.808 208.067 195.438 193.921 198.286 186.267Z" stroke="#0D2543" stroke-miterlimit="10"/>
<path d="M220.695 172.268C227.685 155.72 245.954 143.235 261.086 139.259C271.737 136.462 284.538 138.878 275.257 153.283C266.035 167.581 248.927 180.636 234.427 186.423C223.364 190.838 214.693 186.483 220.695 172.268Z" stroke="#0D2543" stroke-miterlimit="10"/>
<path d="M367.486 800.036C338.696 820.725 306.15 837.804 275.459 855.163C230.608 880.525 185.096 905.21 137.969 924.102C112.703 934.231 79.9617 948.832 52.8513 940.898C42.9389 937.999 33.8993 929.226 25.0121 923.527C12.757 915.667 0.321002 908.197 -12.0928 900.711C-36.9955 885.704 -61.9758 870.848 -86.4511 854.878C-98.2349 847.187 -109.672 837.499 -121.941 830.937C-129.111 827.099 -137.691 828.895 -145.352 829.138C-163.099 829.702 -180.836 830.774 -198.571 831.686C-220.265 832.799 -242.009 833.983 -263.727 833.544C-273.524 833.341 -297.513 835.403 -302.906 825.409C-305.807 820.027 -298.97 810.323 -295.8 805.832C-289.98 797.579 -283.291 790.143 -276.689 782.782C-261.423 765.758 -245.21 749.546 -231.639 730.53C-224.667 720.755 -215.532 708.811 -220.082 695.465C-224.676 681.986 -232.634 670.314 -237.489 656.881C-243.08 641.423 -245.4 625.337 -248.038 608.944C-249.992 596.829 -254.544 586.094 -258.824 574.926C-263.553 562.581 -268.45 550.131 -271.733 537.112C-273.903 528.512 -277.405 513.04 -269.814 507.595C-259.028 499.853 -238.805 506.121 -226.511 508.403C-209.52 511.55 -192.655 515.559 -175.709 519.012C-163.408 521.523 -151.064 524.276 -138.558 524.57C-118.397 525.042 -98.1696 523.406 -78.0624 521.883C-40.8302 519.062 -3.86493 515.237 33.4928 515.237C66.2223 515.237 141.858 560.085 159.561 567.983C194.899 583.746 231.177 598.691 264.618 619.666C273.664 625.345 287.588 632.911 292.347 644.6C295.284 651.802 293.934 655.965 300.86 660.606C310.31 666.938 322.416 669.424 332.876 672.257C349.722 676.819 366.699 680.682 383.622 684.812C417.849 693.143 451.845 702.568 485.929 711.636C496.234 714.377 508.701 714.984 518.525 719.813C524.857 722.915 524.201 726.819 519.298 731.531C510.698 739.799 498.648 744.39 488.49 749.106C473.611 756.016 458.487 762.18 443.353 768.256C428.219 774.333 413.012 780.221 397.873 786.307C387.877 790.32 376.473 793.579 367.486 800.036Z" stroke="#0D2543" stroke-miterlimit="10"/>
<path d="M343.795 795.485C313.342 816.215 279.537 832.733 246.948 848.847C205.24 869.483 162.589 888.822 118.641 901.723C92.8417 909.291 62.3965 917.647 36.034 908.968C26.6287 905.871 19.6019 898.91 11.5395 892.766C2.34956 885.755 -7.1935 879.33 -16.737 873.006C-36.3818 859.988 -56.2341 847.416 -76.2941 835.288C-86.9189 828.839 -98.6125 820.201 -110.618 817.964C-120.162 816.184 -131.002 818.76 -140.586 819.51C-157.849 820.86 -175.108 822.251 -192.378 823.433C-212.306 824.795 -232.29 826.052 -252.262 825.835C-263.392 825.713 -282.5 827.721 -290.372 819.2C-297.239 811.768 -272.236 784.878 -267.839 779.77C-254.106 763.82 -239.665 748.634 -226.883 731.575C-219.33 721.517 -210.133 709.284 -206.948 695.952C-204.238 684.591 -209.468 671.647 -212.558 661.145C-216.421 647.99 -219.538 634.353 -224.028 621.474C-228.025 610 -234.387 599.779 -239.976 589.347C-246.122 577.873 -252.349 566.211 -256.909 553.692C-259.705 545.989 -264.332 533.09 -258.776 525.748C-252.357 517.282 -232.571 522.814 -224.437 524.019C-207.938 526.499 -191.566 530.187 -175.18 533.491C-147.964 538.972 -122.017 543.767 -94.3019 542.619C-58.2105 541.118 -22.1548 537.588 13.9276 535.637C27.2523 534.908 40.79 533.441 54.1284 534.232C61.7738 534.69 67.5927 537.455 72.0416 543.695C78.1147 552.21 92.1003 556.925 101.827 561.811C116.994 569.426 132.352 576.507 147.669 583.683C181.292 599.439 215.559 614.628 247.444 635.008C257.532 641.453 269.082 648.641 276.544 659.29C280.708 665.227 279.659 670.949 282.2 677.26C285.565 685.562 296.628 689.311 303.241 692.024C316.005 697.271 329.291 700.787 342.475 704.08C372.306 711.532 402.209 716.431 432.525 720.042C439.629 720.88 467.604 723.784 452.912 737.782C436.673 753.252 413.231 760.828 394.119 769.548C376.903 777.384 359.674 784.676 343.795 795.485Z" stroke="#0D2543" stroke-miterlimit="10"/>
<path d="M301.708 791.65C273.083 809.89 241.372 823.496 210.542 836.514C173.132 852.31 134.785 866.389 95.5435 874.277C70.8977 879.226 43.723 883.03 19.2409 874.805C2.5224 869.19 -10.4126 854.008 -25.0947 843.566C-39.7768 833.123 -55.0577 823.318 -70.7931 815.146C-80.5587 810.075 -91.0643 804.966 -101.929 805.637C-128.352 807.261 -154.74 811.129 -181.189 813.01C-198.687 814.266 -216.219 815.299 -233.769 814.989C-244.351 814.805 -258.891 815.558 -268.259 808.964C-278.615 801.671 -223.47 739.401 -218.258 732.392C-205.191 714.818 -189.368 691.495 -191.894 666.502C-194.311 642.61 -204.782 624.773 -216.631 606.052C-223.353 595.401 -244.912 566.955 -236.923 553.105C-232.359 545.189 -217.314 547.929 -210.166 548.468C-196.079 549.531 -182.071 551.816 -168.059 553.799C-147.626 556.674 -126.635 561.113 -106.116 562.415C-91.828 563.318 -77.4559 562.11 -63.1432 562.084C-42.6204 562.051 -22.0984 562.236 -1.57563 562.452C15.6563 562.636 33.0329 562.452 50.2045 564.411C60.8797 565.616 68.9824 568.323 76.6396 575.971C83.302 582.624 93.3527 586.52 101.847 590.751C115.873 597.734 130.083 604.207 144.247 610.783C173.898 624.558 203.894 638.042 232.279 655.258C245.236 663.111 267.022 674.108 270.061 693.15C271.159 700.015 271.965 702.985 277.626 706.887C285.662 712.429 295.286 714.925 304.301 717.097C325.319 722.16 346.95 721.402 367.928 726.406C376.473 728.469 387.628 732.921 377.875 743.114C366.492 755.034 349.921 761.588 336.285 768.952C329.477 772.625 322.464 776.065 316 780.55C311.036 784.005 306.786 788.438 301.708 791.65Z" stroke="#0D2543" stroke-miterlimit="10"/>
<path d="M247.491 785.956C221.045 800.77 192.323 811.541 164.117 821.251C132.787 832.021 100.704 840.943 68.195 844.739C45.7474 847.367 21.8304 848.146 0.0439945 840.096C-13.734 835.004 -23.0749 824.296 -34.9303 815.317C-52.8239 801.744 -72.1851 790.99 -93.6801 793.607C-117.78 796.535 -141.96 798.731 -166.219 800.196C-180.852 801.081 -195.542 801.744 -210.191 801.127C-219.454 800.741 -231.388 800.091 -239.446 795.121C-250.228 788.465 -209.728 737.815 -204.68 730.433C-192.158 712.127 -182.982 692.917 -177.619 670.233C-173.245 651.724 -182.179 637.174 -191.397 623.328C-197.127 614.73 -215.644 593.105 -209.843 581.938C-206.663 575.781 -196.185 576.099 -190.558 575.785C-179.832 575.19 -169.061 575.81 -158.337 576.083C-142.5 576.503 -125.641 573.621 -109.938 575.941C-75.1365 581.076 -40.4238 585.521 -5.40646 589.039C13.8967 590.977 33.3164 592.738 52.4464 596.475C59.3146 597.818 66.408 599.24 72.9153 602.277C77.1017 604.226 79.3842 607.549 82.9166 610.275C99.761 623.252 121.749 629.93 140.72 638.247C165.937 649.303 191.292 660.187 215.841 673.247C228.754 680.117 246.788 688.01 255.673 702.032C258.358 706.268 257.214 709.659 258.902 713.729C260.845 718.427 266.748 719.828 270.56 721.136C279.212 724.11 315.426 728.606 298.738 746.052C290.774 754.36 280.629 759.692 271.651 766.22C268.403 768.586 265.232 770.964 262.523 774.156C257.994 779.509 253.528 782.564 247.491 785.956Z" stroke="#0D2543" stroke-miterlimit="10"/>
<path d="M189.723 779.54C137.514 803.51 76.3284 819.838 19.4078 816.675C0.479434 815.619 -19.8866 812.095 -36.2932 800.036C-45.9681 792.913 -53.7006 784.872 -65.3216 782.299C-73.7117 780.441 -82.7458 782.55 -91.1852 783.313C-103.409 784.419 -115.64 785.408 -127.882 786.208C-143.058 787.185 -158.284 787.937 -173.488 787.536C-184.352 787.247 -199.355 787.574 -208.794 780.661C-220.062 772.415 -191.381 733.732 -187.345 726.839C-177.564 710.132 -170.707 693.947 -168.229 673.812C-167.5 667.946 -165.044 661.934 -165.362 656.021C-165.695 649.983 -168.835 644.607 -171.734 639.86C-175.525 633.638 -188.68 618.88 -184.913 611.292C-182.832 607.102 -175.019 606.574 -170.969 605.685C-163.372 604.009 -155.666 603.108 -148.022 601.776C-135.054 599.505 -122.179 592.11 -109.166 592.319C-74.1731 592.872 -38.6735 605.727 -4.38137 612.787C16.0055 616.998 36.531 620.821 56.6699 626.522C63.0422 628.328 69.6053 630.197 75.6622 633.26C79.889 635.396 82.6042 639.206 86.5196 641.599C101.533 650.788 118.798 656.365 134.919 662.549C155.848 670.593 176.847 678.395 197.632 686.96C210.659 692.328 227.408 697.05 238.636 707.006C246.835 714.276 241.232 716.451 236.908 723.222C234.699 726.675 235.209 730.077 234.25 733.986C232.877 739.569 229.003 743.587 225.371 747.201C220.362 752.191 213.688 756.303 209.593 762.419C208.149 764.573 208.217 767.246 207.048 769.124C203.649 774.59 194.632 777.289 189.723 779.54Z" stroke="#0D2543" stroke-miterlimit="10"/>
<path d="M134.214 771.004C91.8401 786.072 44.6937 794.652 -0.0964437 790.671C-15.6787 789.283 -31.3602 786.06 -45.876 778.98C-52.4803 775.77 -57.4381 772.19 -64.6756 771.997C-81.468 771.553 -98.3106 773.108 -115.102 773.481C-127.117 773.75 -139.192 773.844 -151.179 772.702C-159.194 771.939 -170.033 771.025 -176.597 765.203C-186.137 756.724 -168.914 727.899 -165.409 719.935C-159.599 706.727 -153.836 692.044 -156.139 676.764C-156.846 672.091 -158.097 667.962 -158.26 663.197C-158.417 659.102 -157.98 655.321 -159.207 651.406C-160.723 646.552 -167.466 639.021 -165.147 634.552C-163.567 631.501 -158.881 631.358 -155.765 630.383C-150.662 628.779 -145.722 626.699 -141.008 624.171C-135.99 621.471 -131.717 617.301 -126.52 615.069C-118.082 611.456 -108.636 611.117 -99.7659 611.133C-64.3756 611.2 -28.5366 619.473 5.9568 628.117C23.9185 632.618 41.9798 637.418 59.437 644.246C64.7375 646.32 70.7449 648.404 75.4059 652.235C78.3142 654.62 80.2861 657.609 83.5897 659.404C111.813 674.72 144.445 680.407 174.407 691.469C182.206 694.349 225.427 708.897 202.828 722.583C189.102 730.898 174.593 734.679 162.068 746.055C158.252 749.513 155.707 752.376 154.216 757.651C153.234 761.164 155.598 759.38 152.298 763.053C148.293 767.466 139.149 769.248 134.214 771.004Z" stroke="#0D2543" stroke-miterlimit="10"/>
<path d="M90.156 762.093C40.5468 774.392 -11.9894 774.977 -62.3818 764.076C-75.0852 761.33 -88.3061 761.987 -101.165 761.289C-113.66 760.62 -135.874 762.014 -144.949 750.632C-151.53 742.383 -144.389 724.852 -141.92 715.623C-138.773 703.867 -136.023 691.724 -141.19 680.305C-144.216 673.618 -148.362 667.252 -151.608 660.629C-153.16 657.465 -156.357 652.617 -155.024 649.621C-152.82 644.677 -142.508 642.596 -137.505 640.265C-121.515 632.808 -104.578 630.91 -87.4803 630.961C-55.9007 631.057 -24.158 636.173 6.82023 643.11C21.0704 646.303 35.5228 649.709 49.2681 655.258C57.0463 658.397 62.785 664.453 70.2106 668.042C94.1258 679.61 119.82 685.791 144.146 696.369C151.186 699.432 177.487 709.629 164.238 721.653C151.412 733.293 132.699 731.909 119.363 742.857C117.853 744.111 115.986 745.611 115.11 747.637C114.593 748.849 115.504 751.156 115.11 751.845C111.016 759.343 96.4508 760.534 90.156 762.093Z" stroke="#0D2543" stroke-miterlimit="10"/>
<path d="M58.0156 753.963C32.5645 758.098 6.55362 759.124 -19.3258 759.384C-33.4713 759.527 -49.0119 760.594 -62.8551 756.351C-71.3576 753.737 -79.5677 751.451 -88.3344 749.804C-97.7646 748.031 -112.949 746.741 -118.692 737.131C-122.982 729.95 -120.042 715.188 -119.886 706.457C-119.719 696.881 -121.377 689.778 -127.085 682.927C-130.673 678.611 -147.136 662.946 -145.234 658.429C-143.424 654.126 -131.952 653.467 -126.992 652.349C-111.316 648.802 -95.4305 647.569 -79.4847 647.761C-54.7887 648.054 -30.0001 651.038 -5.68972 656.164C4.36093 658.294 14.7479 660.501 24.3489 664.758C30.8146 667.628 36.2066 672.716 42.6292 675.68C61.0232 684.189 80.4733 689.969 98.9303 698.631C104.854 701.417 124.155 708.833 119.528 720.263C115.669 729.807 102.547 732.708 96.0995 739.106C85.1315 750.014 72.0016 751.694 58.0156 753.963Z" stroke="#0D2543" stroke-miterlimit="10"/>
<path d="M41.9816 748.48C21.6464 751.153 1.15756 752.487 -19.3525 752.473C-32.5735 752.511 -46.5209 752.724 -59.4944 749.204C-66.0113 747.437 -71.6743 743.306 -77.8418 740.36C-84.1928 737.33 -92.9572 733.948 -95.7023 727C-98.2816 720.47 -97.3181 710.945 -99.5833 703.07C-101.598 696.084 -105.814 691.769 -110.355 687.048C-113.248 684.03 -128.107 670.967 -126.387 668.082C-124.545 664.992 -115.622 665.244 -110.978 664.818C-98.1953 663.622 -85.3496 663.24 -72.5187 663.676C-55.0112 664.31 -37.369 666.086 -20.1647 670.104C-7.95762 672.952 1.24551 679.731 12.6241 684.703C27.3656 691.161 42.6365 696.268 57.2366 703.331C64.5099 706.856 75.2776 711.385 79.0044 720.471C80.4366 723.953 81.8271 732.811 80.2326 736.292C78.3164 740.478 71.1854 742.252 67.8198 743.328C59.3871 746.011 50.562 747.317 41.9816 748.48Z" stroke="#0D2543" stroke-miterlimit="10"/>
<path d="M23.0675 741.798C-2.1702 745.161 -30.6856 748.017 -56.0008 741.246C-66.2313 738.513 -76.4193 730.414 -80.5908 719.381C-82.7527 713.675 -83.2172 706.883 -86.4451 701.353C-88.8358 697.266 -91.8769 693.573 -94.875 690.134C-96.5646 688.191 -107.39 677.548 -105.299 675.648C-103.096 673.642 -97.6881 674.297 -93.9953 674.247C-85.1336 674.148 -76.2727 674.507 -67.4482 675.324C-57.3097 676.239 -46.9313 677.426 -37.0991 680.638C-29.1677 683.245 -21.9402 688.733 -14.2168 691.993C6.08751 700.622 27.4846 707.385 46.5471 720.164C50.6003 722.883 58.6196 726.949 53.7475 733.088C47.6856 740.738 30.8652 740.763 23.0675 741.798Z" stroke="#0D2543" stroke-miterlimit="10"/>
<path d="M1.06803 735.734C-16.9022 738.091 -36.839 739.196 -54.8813 734.344C-64.0183 731.888 -72.1704 726.772 -76.1483 716.871C-78.9959 709.813 -79.7632 701.937 -83.6551 695.155C-85.0324 692.762 -90.094 686.045 -87.5981 684.581C-82.2587 681.429 -70.3421 685.057 -62.9351 686.712C-51.7858 689.217 -42.4794 696.233 -31.8799 700.392C-15.6219 706.769 4.98024 710.177 19.7974 721.047C34.0794 731.558 6.31135 735.045 1.06803 735.734Z" stroke="#0D2543" stroke-miterlimit="10"/>
<path opacity="0.32" d="M360 -1H0V799H360V-1Z" fill="#707070"/>
</g>
</svg>
