<svg width="24" height="24" viewBox="0 0 24 24" fill="none" xmlns="http://www.w3.org/2000/svg">
<path d="M7.42285 0H0V7.4236H7.42285V0ZM5.93788 5.93848H1.48497V1.48512H5.93788V5.93848Z" fill="#0D2543"/>
<path d="M5 3.00102H3V5.00022H5V3.00102Z" fill="#0D2543"/>
<path d="M16.33 0V7.4236H23.7528V0H16.33ZM22.2679 5.93848H17.8149V1.48512H22.2679V5.93848Z" fill="#0D2543"/>
<path d="M20 3.00102H19V5.00022H20V3.00102Z" fill="#0D2543"/>
<path d="M0 23.7526H7.42285V16.3301H0V23.7526ZM1.48497 17.815H5.93788V22.2677H1.48497V17.815Z" fill="#0D2543"/>
<path d="M5 19.001H3V20.0016H5V19.001Z" fill="#0D2543"/>
<path d="M15 0H12V2.00134H15V0Z" fill="#0D2543"/>
<path d="M11.8755 5.94015H13.3596V4.45489H14.8447V2.97062H10.3904V1.48535H8.90625V4.45489H11.8755V5.94015Z" fill="#0D2543"/>
<path d="M10 6.00091H9V7.00051H10V6.00091Z" fill="#0D2543"/>
<path d="M14.8447 7.42383H13.3596V8.90719H8.90625V10.3916H14.8447V7.42383Z" fill="#0D2543"/>
<path d="M1.48487 13.3616H2.96875V11.8775H1.48487V8.90713H0V14.8458H1.48487V13.3616Z" fill="#0D2543"/>
<path d="M5 9.00098H3V10.0006H5V9.00098Z" fill="#0D2543"/>
<path d="M8.90704 14.8458H11.876V13.3606H10.391V11.8765H7.42207V8.90713H5.9381V11.8765H4.45312V14.8458H5.9381V13.3606H8.90704V14.8458Z" fill="#0D2543"/>
<path d="M15 11.999H14V14.9999H15V11.999Z" fill="#0D2543"/>
<path d="M13.3602 16.3301H8.90625V17.815H11.8752V22.2677H8.90625V23.7526H13.3602V22.2677H16.3291V20.7838H13.3602V16.3301Z" fill="#0D2543"/>
<path d="M10 19.001H9V20.0016H10V19.001Z" fill="#0D2543"/>
<path d="M17 16.999H15V18.9993H17V16.999Z" fill="#0D2543"/>
<path d="M22.2676 19.2979H17.8145V23.7516H19.2985V20.7827H22.2676V19.2979Z" fill="#0D2543"/>
<path d="M24 22H20V24.0003H24V22Z" fill="#0D2543"/>
<path d="M24 16.999H22V17.9986H24V16.999Z" fill="#0D2543"/>
<path d="M17.8149 17.8151H19.2988V13.3613H16.3301V14.8456H17.8149V17.8151Z" fill="#0D2543"/>
<path d="M20.784 10.391H19.299V8.90713H17.815V10.391H16.3301V11.8759H22.2679V10.391H23.7529V8.90713H20.784V10.391Z" fill="#0D2543"/>
<path d="M24 13.999H20V14.9997H24V13.999Z" fill="#0D2543"/>
</svg>
